<svg preserveAspectRatio="none" width="100%" height="100%" overflow="visible" style="display: block;" viewBox="0 0 154.5 36.7129" fill="none" xmlns="http://www.w3.org/2000/svg">
<g id="Logo">
<g id="Vector">
<path d="M36.0719 1.26688V0H29.7007V1.26688H30.6273V16.0258H27.7176V2.95071H8.35431V16.0258H5.44462V1.26688H6.37114V0H0V1.26688H0.926521V35.4246H0V36.7129H6.37114V35.446H5.44462V20.6764H8.35431V31.501H7.42258V32.7679H13.7989V31.501H12.8672V20.6764H30.6273V35.4407H29.7007V36.7129H36.0719V35.446H35.1454V1.28827L36.0719 1.26688ZM12.8672 7.58527H23.2047V16.0258H12.8672V7.58527Z" fill="black"/>
<path d="M27.7176 21.9753H23.2047V31.485H22.273V32.7519H28.6493V31.485H27.7176V21.9753Z" fill="black"/>
<path d="M54.9771 5.7571V15.7853H53.2386V11.0545H49.0744V15.7959H47.3359V5.7571H49.0744V10.3596H53.2386V5.7571H54.9771Z" fill="black"/>
<path d="M56.5907 15.7853L61.0828 5.7571L65.6997 15.7853H63.779L62.941 13.9785H58.2564L57.4964 15.7853H56.5907ZM58.5895 13.2943H62.6339L60.5518 8.84145L58.5895 13.2943Z" fill="black"/>
<path d="M73.5856 11.9632C73.771 12.3221 73.8675 12.7223 73.8667 13.1285C73.8741 13.5308 73.7882 13.9291 73.6163 14.2907C73.4443 14.6522 73.1912 14.9666 72.8777 15.2079C72.2516 15.7147 71.4729 15.9812 70.6759 15.9616C70.4181 15.9666 70.1604 15.9487 69.9055 15.9082C69.5438 15.8638 69.1918 15.7572 68.8645 15.5928C68.4199 15.3535 68.0433 14.9999 67.7714 14.5665C67.4828 14.124 67.304 13.6156 67.2509 13.0858H67.9172C67.9381 13.3577 68.0106 13.6228 68.1306 13.8662C68.3589 14.2879 68.7077 14.6275 69.13 14.8391C69.5557 15.0607 70.0269 15.1744 70.5041 15.1705C70.957 15.1876 71.4029 15.0525 71.7742 14.7856C71.9497 14.6663 72.0929 14.5032 72.1903 14.3115C72.2877 14.1198 72.3362 13.9059 72.3312 13.6898C72.3195 13.4212 72.2443 13.1595 72.1118 12.9276C71.9794 12.6956 71.7938 12.5004 71.5712 12.3588C71.0485 11.9918 70.5044 11.658 69.942 11.3592C69.3551 11.062 68.7943 10.7132 68.2659 10.3168C67.9236 10.0808 67.6424 9.76289 67.4465 9.39036C67.2506 9.01784 67.146 8.60195 67.1416 8.1786C67.1349 7.80222 67.2137 7.42943 67.3719 7.08981C67.53 6.75019 67.763 6.4531 68.0525 6.22215C68.6311 5.73882 69.3576 5.48131 70.1033 5.49517C70.7805 5.47831 71.4478 5.66403 72.024 6.02972C72.3683 6.2934 72.6437 6.64048 72.8256 7.04001C72.9544 7.33355 73.0471 7.64239 73.1015 7.95943H72.3832C72.2784 7.43127 71.9779 6.96555 71.5452 6.66048C71.1133 6.38586 70.6107 6.2517 70.1033 6.2756C69.7059 6.27647 69.3204 6.41594 69.0102 6.67117C68.8502 6.78101 68.7189 6.9297 68.6281 7.10405C68.5373 7.27841 68.4898 7.47307 68.4897 7.67079C68.4907 7.94885 68.5906 8.21693 68.7708 8.42449C69.3901 9.00202 70.0923 9.47803 70.8529 9.83571C71.6389 10.2634 72.1177 10.536 72.3468 10.6856C72.8608 10.9937 73.2878 11.4341 73.5856 11.9632Z" fill="black"/>
<path d="M82.1533 11.9632C82.4213 12.5042 82.4972 13.1242 82.368 13.7164C82.2388 14.3087 81.9125 14.8361 81.4454 15.2079C80.8188 15.7139 80.0405 15.9803 79.2436 15.9617C78.9841 15.9666 78.7246 15.9487 78.4681 15.9082C78.1063 15.8636 77.7544 15.757 77.427 15.5928C76.9814 15.3549 76.6045 15.001 76.3339 14.5665C76.0455 14.1239 75.8668 13.6156 75.8134 13.0858H76.4797C76.5031 13.3573 76.5754 13.6219 76.6931 13.8662C76.922 14.2894 77.2729 14.6293 77.6977 14.8391C78.1232 15.0613 78.5945 15.175 79.0719 15.1705C79.523 15.1864 79.9669 15.0514 80.3367 14.7857C80.5139 14.6677 80.6587 14.505 80.7571 14.3131C80.8555 14.1212 80.9043 13.9066 80.8989 13.6898C80.886 13.4215 80.8101 13.1604 80.6778 12.9286C80.5455 12.6969 80.3606 12.5014 80.1389 12.3588C79.6154 11.9931 79.0714 11.6593 78.5097 11.3592C77.9212 11.0618 77.3588 10.7131 76.8284 10.3168C76.4868 10.0806 76.2063 9.76245 76.0113 9.38988C75.8163 9.01732 75.7127 8.60157 75.7093 8.17862C75.7028 7.80281 75.7812 7.43057 75.9384 7.09111C76.0955 6.75166 76.3271 6.45423 76.615 6.22216C77.195 5.73764 77.9235 5.48005 78.6711 5.49518C79.3484 5.47677 80.0162 5.66261 80.5918 6.02973C80.936 6.29342 81.2114 6.64049 81.3934 7.04002C81.526 7.33246 81.6205 7.64161 81.6744 7.95945H80.9561C80.8516 7.42976 80.5488 6.96336 80.1129 6.6605C79.6813 6.38525 79.1785 6.25104 78.6711 6.27562C78.2738 6.27774 77.8888 6.41707 77.578 6.67118C77.4176 6.78068 77.2861 6.92929 77.1952 7.10372C77.1044 7.27816 77.0571 7.47299 77.0575 7.6708C77.0584 7.94886 77.1584 8.21694 77.3385 8.4245C77.9572 9.00285 78.6596 9.47895 79.4206 9.83573C80.2118 10.2634 80.6907 10.536 80.9145 10.6857C81.4279 10.9945 81.8547 11.4347 82.1533 11.9632Z" fill="black"/>
<path d="M83.5223 15.7853L88.0196 5.7571L92.6365 15.7853H90.7158L89.8726 13.9785H85.2192L84.4072 15.7853H83.5223ZM85.5263 13.2943H89.5655L87.5147 8.84145L85.5263 13.2943Z" fill="black"/>
<path d="M101.548 5.7571V15.7853L95.0257 9.08735V15.7853H94.2241V5.7571L100.746 12.4443V5.7571H101.548Z" fill="black"/>
<path d="M106.488 15.7853L110.98 5.7571L115.597 15.7853H113.676L112.838 13.9785H108.179L107.367 15.7853H106.488ZM108.486 13.2943H112.531L110.449 8.84145L108.486 13.2943Z" fill="black"/>
<path d="M123.602 14.962V15.7853H117.2V5.7571H118.798V14.962H123.602Z" fill="black"/>
<path d="M131.873 14.962V15.7853H125.471V5.7571H127.069V14.962H131.873Z" fill="black"/>
<path d="M133.492 15.7853L137.984 5.7571L142.601 15.7853H140.68L139.842 13.9785H135.184L134.372 15.7853H133.492ZM135.491 13.2943H139.535L137.479 8.84145L135.491 13.2943Z" fill="black"/>
<path d="M154.5 5.7571V15.7853H152.751V7.67613L148.92 15.9937L145.24 8.02893V15.7853H144.438V5.7571H146.109L149.43 12.9521L152.751 5.7571H154.5Z" fill="black"/>
<path d="M53.5613 24.8566C53.5613 27.679 50.6256 27.663 49.0536 27.6523V32.0783H47.3151V22.0502H49.0276C50.5839 22.0502 53.5613 22.0609 53.5613 24.8566ZM51.8384 24.8566C51.866 24.5873 51.8384 24.315 51.7571 24.0574C51.6759 23.7997 51.5429 23.5625 51.3668 23.3609C51.1907 23.1594 50.9753 22.9981 50.7347 22.8874C50.494 22.7767 50.2334 22.7191 49.9697 22.7184H49.0536V26.9146H49.9697C50.4902 26.9413 51.8384 26.968 51.8384 24.8566Z" fill="black"/>
<path d="M61.0203 32.0783L57.8972 27.6523H57.1528V32.0783H55.4143V22.0502H57.1216C58.6832 22.0502 61.6553 22.0502 61.6553 24.8566C61.6553 26.4175 60.7652 27.1017 59.693 27.4171L62.9774 32.0783H61.0203ZM59.9532 24.8566C59.9809 24.5873 59.9533 24.315 59.872 24.0574C59.7908 23.7997 59.6578 23.5625 59.4817 23.3609C59.3056 23.1594 59.0902 22.9981 58.8495 22.8874C58.6089 22.7767 58.3483 22.7191 58.0846 22.7184H57.1633V26.9146H58.0846C58.4628 26.9367 58.8399 26.8556 59.1777 26.6794H59.2037C59.6045 26.4442 59.9532 25.9257 59.9532 24.8566Z" fill="black"/>
<path d="M73.5596 27.0482C73.5596 30.6778 71.4515 32.2708 68.8489 32.2708C66.2463 32.2708 64.1382 30.6671 64.1382 27.0482C64.1382 23.5416 66.2463 21.8417 68.8489 21.8417C71.4515 21.8417 73.5596 23.5149 73.5596 27.0482ZM71.7169 27.0482C71.7169 23.8409 70.5718 22.5259 68.8489 22.5259C67.126 22.5259 65.9964 23.8409 65.9964 27.0482C65.9964 30.3624 67.1416 31.5972 68.8489 31.5972C70.5562 31.5972 71.7169 30.3624 71.7169 27.0482Z" fill="black"/>
<path d="M81.6016 24.8566C81.6016 27.679 78.6711 27.663 77.0939 27.6523V32.0783H75.3606V22.0502H77.0679C78.6294 22.0502 81.6016 22.0609 81.6016 24.8566ZM79.8839 24.8566C79.9115 24.5873 79.8839 24.315 79.8027 24.0574C79.7214 23.7997 79.5884 23.5625 79.4123 23.3609C79.2362 23.1594 79.0208 22.9981 78.7802 22.8874C78.5395 22.7767 78.2789 22.7191 78.0152 22.7184H77.0939V26.9146H78.0152C78.5357 26.9413 79.8787 26.968 79.8787 24.8566H79.8839Z" fill="black"/>
<path d="M89.7685 32.0783H83.4702V22.0502H89.7685V22.7344H85.2192V26.4335H88.9981V27.2567H85.2192V31.3941H89.7685V32.0783Z" fill="black"/>
<path d="M97.3316 32.0783L94.2085 27.6523H93.4642V32.0783H91.7256V22.0502H93.4329C94.9945 22.0502 97.9719 22.0502 97.9719 24.8566C97.9719 26.4175 97.0766 27.1017 96.0095 27.4171L99.294 32.0783H97.3316ZM96.2906 24.8566C96.3183 24.5873 96.2906 24.315 96.2094 24.0574C96.1281 23.7997 95.9952 23.5625 95.819 23.3609C95.6429 23.1594 95.4275 22.9981 95.1869 22.8874C94.9462 22.7767 94.6856 22.7191 94.4219 22.7184H93.5058V26.9146H94.4219C94.8018 26.9369 95.1807 26.8558 95.5202 26.6794H95.5462C95.921 26.4442 96.2646 25.9257 96.2646 24.8566H96.2906Z" fill="black"/>
<path d="M108.075 22.868H104.952V32.0783H103.219V22.868H100.096V22.0502H108.049L108.075 22.868Z" fill="black"/>
<path d="M111.807 32.0783H110.209V22.0502H111.807V32.0783Z" fill="black"/>
<path d="M120.224 32.0783H113.941V22.0502H120.224V22.7344H115.68V26.4335H119.438V27.2567H115.664V31.3941H120.208L120.224 32.0783Z" fill="black"/>
<path d="M128.511 28.2563C128.696 28.6152 128.793 29.0154 128.792 29.4216C128.798 29.8238 128.712 30.2218 128.54 30.5832C128.368 30.9446 128.116 31.2591 127.803 31.501C127.175 32.0054 126.398 32.2716 125.601 32.2547C125.343 32.2595 125.085 32.2416 124.831 32.2013C124.469 32.1536 124.118 32.0471 123.79 31.8859C123.345 31.6465 122.968 31.2929 122.696 30.8596C122.408 30.4171 122.229 29.9087 122.176 29.3789H122.842C122.864 29.6506 122.937 29.9155 123.056 30.1593C123.284 30.581 123.633 30.9206 124.055 31.1322C124.481 31.3521 124.952 31.464 125.429 31.4583C125.881 31.4735 126.326 31.3405 126.699 31.0787C126.871 30.9615 127.011 30.8025 127.108 30.616C127.206 30.4295 127.256 30.2212 127.256 30.0096C127.245 29.7409 127.17 29.4791 127.037 29.247C126.905 29.015 126.719 28.8198 126.496 28.6786C125.975 28.3126 125.432 27.9788 124.872 27.679C124.284 27.3808 123.722 27.032 123.191 26.6366C122.849 26.4007 122.567 26.0827 122.372 25.7102C122.176 25.3376 122.071 24.9218 122.067 24.4984C122.06 24.1213 122.139 23.7477 122.297 23.4072C122.455 23.0667 122.688 22.7687 122.978 22.5366C123.557 22.0553 124.283 21.7981 125.028 21.8096C125.705 21.7982 126.371 21.9835 126.949 22.3442C127.292 22.6113 127.567 22.9597 127.751 23.3598C127.879 23.6541 127.973 23.9626 128.032 24.2792H127.35C127.245 23.7496 126.945 23.2821 126.512 22.9749C126.08 22.7019 125.577 22.5696 125.07 22.5954C124.672 22.5941 124.286 22.7338 123.977 22.991C123.817 23.1008 123.686 23.2495 123.595 23.4239C123.504 23.5982 123.456 23.7929 123.456 23.9906C123.459 24.2683 123.559 24.5357 123.737 24.7443C124.358 25.3205 125.06 25.7964 125.82 26.1555C126.606 26.5778 127.084 26.8558 127.313 27.0055C127.81 27.3104 128.222 27.7411 128.511 28.2563Z" fill="black"/>
</g>
</g>
</svg>
